VIC-WA-NT-Beginner-Bold.ufo
<glyph name="parenright" format="2">
  <advance width="452"/>
  <unicode hex="0029"/>
  <outline>
    <contour>
      <point x="-1" y="-267" type="curve" smooth="yes"/>
      <point x="15" y="-289"/>
      <point x="52" y="-291"/>
      <point x="73" y="-270" type="curve" smooth="yes"/>
      <point x="219" y="-132"/>
      <point x="308" y="41"/>
      <point x="331" y="164" type="curve" smooth="yes"/>
      <point x="349" y="274"/>
      <point x="321" y="469"/>
      <point x="241" y="631" type="curve" smooth="yes"/>
      <point x="220" y="669"/>
      <point x="191" y="679"/>
      <point x="169" y="669" type="curve" smooth="yes"/>
      <point x="151" y="660"/>
      <point x="139" y="640"/>
      <point x="156" y="601" type="curve" smooth="yes"/>
      <point x="227" y="448"/>
      <point x="251" y="309"/>
      <point x="230" y="190" type="curve" smooth="yes"/>
      <point x="207" y="56"/>
      <point x="146" y="-76"/>
      <point x="14" y="-207" type="curve" smooth="yes"/>
      <point x="-6" y="-225"/>
      <point x="-16" y="-249"/>
    </contour>
  </outline>
</glyph>
<glyph name="comma" format="2">
  <advance width="219"/>
  <unicode hex="002C"/>
  <outline>
    <contour>
      <point x="63" y="-79" type="curve" smooth="yes"/>
      <point x="89" y="-79"/>
      <point x="110" y="-68"/>
      <point x="118" y="-37" type="curve" smooth="yes"/>
      <point x="144" y="67" type="line" smooth="yes"/>
      <point x="156" y="113"/>
      <point x="123" y="129"/>
      <point x="96" y="129" type="curve" smooth="yes"/>
      <point x="70" y="129"/>
      <point x="50" y="119.0"/>
      <point x="42" y="87" type="curve" smooth="yes"/>
      <point x="16" y="-17" type="line" smooth="yes"/>
      <point x="5" y="-62"/>
      <point x="37" y="-79"/>
    </contour>
  </outline>
</glyph>
<glyph name="five" format="2">
  <advance width="418"/>
  <unicode hex="0035"/>
  <outline>
    <contour>
      <point x="137" y="-3" type="curve" smooth="yes"/>
      <point x="272" y="-3"/>
      <point x="373" y="91"/>
      <point x="373" y="216" type="curve" smooth="yes"/>
      <point x="373" y="312"/>
      <point x="322" y="371"/>
      <point x="240" y="371" type="curve" smooth="yes"/>
      <point x="196" y="371"/>
      <point x="174" y="367"/>
      <point x="136" y="355" type="curve"/>
      <point x="161" y="341" type="line"/>
      <point x="191" y="517" type="line"/>
      <point x="158" y="487" type="line"/>
      <point x="381" y="487" type="line" smooth="yes"/>
      <point x="413" y="487"/>
      <point x="430" y="505"/>
      <point x="430" y="529" type="curve" smooth="yes"/>
      <point x="430" y="556"/>
      <point x="411" y="571"/>
      <point x="381" y="571" type="curve"/>
      <point x="165" y="571" type="line" smooth="yes"/>
      <point x="127" y="571"/>
      <point x="100" y="560"/>
      <point x="93" y="523" type="curve" smooth="yes"/>
      <point x="55" y="312" type="line" smooth="yes"/>
      <point x="49" y="281"/>
      <point x="78" y="264"/>
      <point x="98" y="264" type="curve" smooth="yes"/>
      <point x="107" y="264"/>
      <point x="115" y="266"/>
      <point x="122" y="268" type="curve" smooth="yes"/>
      <point x="147" y="275"/>
      <point x="170" y="281"/>
      <point x="195" y="281" type="curve" smooth="yes"/>
      <point x="243" y="281"/>
      <point x="273" y="251"/>
      <point x="273" y="203" type="curve" smooth="yes"/>
      <point x="273" y="134"/>
      <point x="215" y="83"/>
      <point x="138" y="83" type="curve" smooth="yes"/>
      <point x="120" y="83"/>
      <point x="105" y="86"/>
      <point x="95" y="93" type="curve" smooth="yes"/>
      <point x="83" y="101"/>
      <point x="74" y="110"/>
      <point x="54" y="110" type="curve" smooth="yes"/>
      <point x="36" y="110"/>
      <point x="13" y="97"/>
      <point x="13" y="72" type="curve" smooth="yes"/>
      <point x="13" y="58"/>
      <point x="19" y="45"/>
      <point x="33" y="31" type="curve" smooth="yes"/>
      <point x="57" y="8"/>
      <point x="96" y="-3"/>
    </contour>
  </outline>
</glyph>
<glyph name="colon" format="2">
  <advance width="219"/>
  <unicode hex="003A"/>
  <outline>
    <contour>
      <point x="90" y="0" type="curve" smooth="yes"/>
      <point x="123" y="0"/>
      <point x="153" y="30"/>
      <point x="153" y="65" type="curve" smooth="yes"/>
      <point x="153" y="98"/>
      <point x="123" y="126"/>
      <point x="90" y="126" type="curve" smooth="yes"/>
      <point x="55" y="126"/>
      <point x="28" y="98"/>
      <point x="28" y="65" type="curve" smooth="yes"/>
      <point x="28" y="30"/>
      <point x="55" y="0"/>
    </contour>
    <contour>
      <point x="148" y="233" type="curve" smooth="yes"/>
      <point x="181" y="233"/>
      <point x="211" y="263"/>
      <point x="211" y="298" type="curve" smooth="yes"/>
      <point x="211" y="331"/>
      <point x="181" y="359"/>
      <point x="148" y="359" type="curve" smooth="yes"/>
      <point x="113" y="359"/>
      <point x="86" y="331"/>
      <point x="86" y="298" type="curve" smooth="yes"/>
      <point x="86" y="263"/>
      <point x="113" y="233"/>
    </contour>
  </outline>
</glyph>
<glyph name="question" format="2">
  <advance width="490"/>
  <unicode hex="003F"/>
  <outline>
    <contour>
      <point x="176" y="0" type="curve" smooth="yes"/>
      <point x="209" y="0"/>
      <point x="239" y="30"/>
      <point x="239" y="65" type="curve" smooth="yes"/>
      <point x="239" y="98"/>
      <point x="209" y="126"/>
      <point x="176" y="126" type="curve" smooth="yes"/>
      <point x="141" y="126"/>
      <point x="114" y="98"/>
      <point x="114" y="65" type="curve" smooth="yes"/>
      <point x="114" y="30"/>
      <point x="141" y="0"/>
    </contour>
    <contour>
      <point x="200" y="176" type="curve" smooth="yes"/>
      <point x="226" y="176"/>
      <point x="245" y="193"/>
      <point x="251" y="225" type="curve" smooth="yes"/>
      <point x="259" y="268" type="line"/>
      <point x="390" y="276"/>
      <point x="473" y="370"/>
      <point x="473" y="490" type="curve" smooth="yes"/>
      <point x="473" y="589"/>
      <point x="413" y="650"/>
      <point x="317" y="650" type="curve" smooth="yes"/>
      <point x="200" y="650"/>
      <point x="132" y="582"/>
      <point x="116" y="489" type="curve" smooth="yes"/>
      <point x="110" y="453"/>
      <point x="125" y="430"/>
      <point x="157" y="430" type="curve" smooth="yes"/>
      <point x="186" y="430"/>
      <point x="206" y="446"/>
      <point x="210" y="472" type="curve" smooth="yes"/>
      <point x="218" y="520"/>
      <point x="243" y="561"/>
      <point x="305" y="561" type="curve" smooth="yes"/>
      <point x="350" y="561"/>
      <point x="378" y="531"/>
      <point x="378" y="483" type="curve" smooth="yes"/>
      <point x="378" y="403"/>
      <point x="315" y="356"/>
      <point x="218" y="356" type="curve" smooth="yes"/>
      <point x="197" y="356"/>
      <point x="176" y="342"/>
      <point x="172" y="321" type="curve" smooth="yes"/>
      <point x="156" y="233" type="line" smooth="yes"/>
      <point x="149" y="200"/>
      <point x="168" y="176"/>
    </contour>
  </outline>
</glyph>
<glyph name="D" format="2">
  <advance width="577"/>
  <unicode hex="0044"/>
  <outline>
    <contour>
      <point x="84" y="0" type="curve" smooth="yes"/>
      <point x="162" y="0" type="line" smooth="yes"/>
      <point x="363" y="0"/>
      <point x="532" y="150"/>
      <point x="559" y="351" type="curve" smooth="yes"/>
      <point x="584" y="536"/>
      <point x="462" y="650"/>
      <point x="239" y="650" type="curve" smooth="yes"/>
      <point x="189" y="650" type="line" smooth="yes"/>
      <point x="158" y="650"/>
      <point x="143" y="636"/>
      <point x="138" y="609" type="curve" smooth="yes"/>
      <point x="39" y="49" type="line" smooth="yes"/>
      <point x="34" y="22"/>
      <point x="53" y="0"/>
    </contour>
    <contour>
      <point x="148" y="89" type="line"/>
      <point x="231" y="561" type="line"/>
      <point x="244" y="561" type="line" smooth="yes"/>
      <point x="396" y="561"/>
      <point x="479" y="480"/>
      <point x="462" y="350" type="curve" smooth="yes"/>
      <point x="443" y="201"/>
      <point x="314" y="89"/>
      <point x="162" y="89" type="curve" smooth="yes"/>
    </contour>
  </outline>
</glyph>
<glyph name="O" format="2">
  <advance width="574"/>
  <unicode hex="004F"/>
  <outline>
    <contour>
      <point x="265" y="0" type="curve" smooth="yes"/>
      <point x="407" y="0"/>
      <point x="520" y="148"/>
      <point x="562" y="387" type="curve" smooth="yes"/>
      <point x="591" y="551"/>
      <point x="538" y="650"/>
      <point x="371" y="650" type="curve" smooth="yes"/>
      <point x="208" y="650"/>
      <point x="106" y="542"/>
      <point x="68" y="329" type="curve" smooth="yes"/>
      <point x="33" y="126"/>
      <point x="108" y="0"/>
    </contour>
    <contour>
      <point x="264" y="90" type="curve" smooth="yes"/>
      <point x="179" y="90"/>
      <point x="142" y="177"/>
      <point x="167" y="319" type="curve" smooth="yes"/>
      <point x="196" y="479"/>
      <point x="263" y="560"/>
      <point x="366" y="560" type="curve" smooth="yes"/>
      <point x="474" y="560"/>
      <point x="482" y="495"/>
      <point x="462" y="381" type="curve" smooth="yes"/>
      <point x="431" y="201"/>
      <point x="355" y="90"/>
    </contour>
  </outline>
</glyph>
<glyph name="T" format="2">
  <advance width="494"/>
  <unicode hex="0054"/>
  <outline>
    <contour>
      <point x="216" y="-1" type="curve" smooth="yes"/>
      <point x="249" y="-1"/>
      <point x="266" y="18"/>
      <point x="270" y="39" type="curve" smooth="yes"/>
      <point x="371" y="617" type="line"/>
      <point x="270" y="617" type="line"/>
      <point x="170" y="49" type="line" smooth="yes"/>
      <point x="165" y="21"/>
      <point x="185" y="-1"/>
    </contour>
    <contour>
      <point x="138" y="563" type="curve" smooth="yes"/>
      <point x="500" y="563" type="line" smooth="yes"/>
      <point x="532" y="563"/>
      <point x="550" y="583"/>
      <point x="550" y="607" type="curve" smooth="yes"/>
      <point x="550" y="633"/>
      <point x="530" y="653"/>
      <point x="500" y="653" type="curve" smooth="yes"/>
      <point x="138" y="653" type="line" smooth="yes"/>
      <point x="108" y="653"/>
      <point x="88" y="633"/>
      <point x="88" y="607" type="curve" smooth="yes"/>
      <point x="88" y="583"/>
      <point x="106" y="563"/>
    </contour>
  </outline>
</glyph>
<glyph name="U" format="2">
  <advance width="566"/>
  <unicode hex="0055"/>
  <outline>
    <contour>
      <point x="154" y="-4" type="curve" smooth="yes"/>
      <point x="282" y="-4"/>
      <point x="415" y="146"/>
      <point x="483" y="389" type="curve"/>
      <point x="460" y="543" type="line"/>
      <point x="383" y="260"/>
      <point x="276" y="86"/>
      <point x="182" y="86" type="curve" smooth="yes"/>
      <point x="151" y="86"/>
      <point x="153" y="125"/>
      <point x="164" y="185" type="curve" smooth="yes"/>
      <point x="238" y="600" type="line" smooth="yes"/>
      <point x="243" y="629"/>
      <point x="222" y="650"/>
      <point x="193" y="650" type="curve" smooth="yes"/>
      <point x="161" y="651"/>
      <point x="141" y="624"/>
      <point x="138" y="606" type="curve" smooth="yes"/>
      <point x="64" y="195" type="line" smooth="yes"/>
      <point x="39" y="57"/>
      <point x="81" y="-4"/>
    </contour>
    <contour>
      <point x="420" y="0" type="curve" smooth="yes"/>
      <point x="443" y="0"/>
      <point x="469" y="12"/>
      <point x="473" y="37" type="curve" smooth="yes"/>
      <point x="572" y="602" type="line" smooth="yes"/>
      <point x="577" y="630"/>
      <point x="559" y="650"/>
      <point x="525" y="650" type="curve" smooth="yes"/>
      <point x="497" y="650"/>
      <point x="476" y="635"/>
      <point x="472" y="612" type="curve" smooth="yes"/>
      <point x="374" y="49" type="line" smooth="yes"/>
      <point x="368" y="16"/>
      <point x="392" y="0"/>
    </contour>
  </outline>
</glyph>
<glyph name="bracketleft" format="2">
  <advance width="422"/>
  <unicode hex="005B"/>
  <outline>
    <contour>
      <point x="55" y="-300" type="curve" smooth="yes"/>
      <point x="191" y="-300" type="line" smooth="yes"/>
      <point x="221" y="-300"/>
      <point x="238" y="-284"/>
      <point x="243" y="-258" type="curve" smooth="yes"/>
      <point x="248" y="-230"/>
      <point x="222" y="-215"/>
      <point x="191" y="-215" type="curve" smooth="yes"/>
      <point x="114" y="-215" type="line"/>
      <point x="252" y="565" type="line"/>
      <point x="344" y="565" type="line" smooth="yes"/>
      <point x="372" y="565"/>
      <point x="391" y="582"/>
      <point x="395" y="605" type="curve" smooth="yes"/>
      <point x="400" y="633"/>
      <point x="373" y="650"/>
      <point x="344" y="650" type="curve" smooth="yes"/>
      <point x="213" y="650" type="line"/>
      <point x="183" y="650"/>
      <point x="163" y="637"/>
      <point x="158" y="609" type="curve" smooth="yes"/>
      <point x="6" y="-251" type="line" smooth="yes"/>
      <point x="1" y="-279"/>
      <point x="21" y="-300"/>
    </contour>
  </outline>
</glyph>
<glyph name="backslash" format="2">
  <advance width="417"/>
  <unicode hex="005C"/>
  <outline>
    <contour>
      <point x="349" y="4" type="curve" smooth="yes"/>
      <point x="370" y="13"/>
      <point x="381" y="41"/>
      <point x="370" y="69" type="curve" smooth="yes"/>
      <point x="164" y="614" type="line" smooth="yes"/>
      <point x="151" y="648"/>
      <point x="118" y="655"/>
      <point x="93" y="646" type="curve" smooth="yes"/>
      <point x="71" y="638"/>
      <point x="59" y="608"/>
      <point x="72" y="574" type="curve" smooth="yes"/>
      <point x="277" y="32" type="line" smooth="yes"/>
      <point x="289" y="1"/>
      <point x="324" y="-6"/>
    </contour>
  </outline>
</glyph>
<glyph name="bracketright" format="2">
  <advance width="422"/>
  <unicode hex="005D"/>
  <outline>
    <contour>
      <point x="56" y="-300" type="curve" smooth="yes"/>
      <point x="186" y="-300" type="line"/>
      <point x="217" y="-300"/>
      <point x="236" y="-287"/>
      <point x="241" y="-259" type="curve" smooth="yes"/>
      <point x="393" y="601" type="line" smooth="yes"/>
      <point x="398" y="629"/>
      <point x="378" y="650"/>
      <point x="344" y="650" type="curve" smooth="yes"/>
      <point x="209" y="650" type="line" smooth="yes"/>
      <point x="178" y="650"/>
      <point x="162" y="634"/>
      <point x="157" y="607" type="curve" smooth="yes"/>
      <point x="153" y="583"/>
      <point x="178" y="565"/>
      <point x="209" y="565" type="curve" smooth="yes"/>
      <point x="285" y="565" type="line"/>
      <point x="147" y="-215" type="line"/>
      <point x="56" y="-215" type="line" smooth="yes"/>
      <point x="30" y="-215"/>
      <point x="9" y="-233"/>
      <point x="5" y="-257" type="curve" smooth="yes"/>
      <point x="1" y="-281"/>
      <point x="22" y="-300"/>
    </contour>
  </outline>
</glyph>
<glyph name="e" format="2">
  <advance width="344"/>
  <unicode hex="0065"/>
  <outline>
    <contour>
      <point x="140" y="-4" type="curve" smooth="yes"/>
      <point x="192" y="-4"/>
      <point x="243" y="19"/>
      <point x="275" y="58" type="curve" smooth="yes"/>
      <point x="301" y="90"/>
      <point x="289" y="117"/>
      <point x="274" y="128" type="curve" smooth="yes"/>
      <point x="254" y="142"/>
      <point x="228" y="135"/>
      <point x="207" y="110" type="curve" smooth="yes"/>
      <point x="191" y="91"/>
      <point x="168" y="81"/>
      <point x="147" y="81" type="curve" smooth="yes"/>
      <point x="132" y="81"/>
      <point x="124" y="93"/>
      <point x="124" y="118" type="curve" smooth="yes"/>
      <point x="124" y="212"/>
      <point x="166" y="282"/>
      <point x="222" y="282" type="curve" smooth="yes"/>
      <point x="228" y="282"/>
      <point x="231" y="279"/>
      <point x="231" y="273" type="curve" smooth="yes"/>
      <point x="231" y="260"/>
      <point x="211" y="240"/>
      <point x="173" y="217" type="curve" smooth="yes"/>
      <point x="146" y="201"/>
      <point x="100" y="176"/>
      <point x="82" y="167" type="curve"/>
      <point x="69" y="88" type="line"/>
      <point x="128" y="115"/>
      <point x="184" y="143"/>
      <point x="216" y="162" type="curve" smooth="yes"/>
      <point x="286" y="201"/>
      <point x="321" y="242"/>
      <point x="321" y="284" type="curve" smooth="yes"/>
      <point x="321" y="333"/>
      <point x="289" y="358"/>
      <point x="225" y="358" type="curve" smooth="yes"/>
      <point x="120" y="358"/>
      <point x="25" y="244"/>
      <point x="25" y="117" type="curve" smooth="yes"/>
      <point x="25" y="36"/>
      <point x="64" y="-4"/>
    </contour>
  </outline>
</glyph>
<glyph name="i" format="2">
  <advance width="212"/>
  <unicode hex="0069"/>
  <outline>
    <contour>
      <point x="69" y="0" type="curve" smooth="yes"/>
      <point x="106" y="0"/>
      <point x="125" y="22"/>
      <point x="128" y="37" type="curve" smooth="yes"/>
      <point x="175" y="302" type="line" smooth="yes"/>
      <point x="180" y="332"/>
      <point x="164" y="350"/>
      <point x="132" y="350" type="curve" smooth="yes"/>
      <point x="90" y="350"/>
      <point x="77" y="320"/>
      <point x="75" y="308" type="curve" smooth="yes"/>
      <point x="28" y="44" type="line" smooth="yes"/>
      <point x="24" y="20"/>
      <point x="35" y="0"/>
    </contour>
    <contour>
      <point x="150" y="413" type="curve" smooth="yes"/>
      <point x="179" y="413"/>
      <point x="204" y="437"/>
      <point x="204" y="466" type="curve" smooth="yes"/>
      <point x="204" y="497"/>
      <point x="178" y="519"/>
      <point x="150" y="519" type="curve" smooth="yes"/>
      <point x="121" y="519"/>
      <point x="98" y="495"/>
      <point x="98" y="466" type="curve" smooth="yes"/>
      <point x="98" y="437"/>
      <point x="122" y="413"/>
    </contour>
  </outline>
</glyph>
<glyph name="k" format="2">
  <advance width="422"/>
  <unicode hex="006B"/>
  <outline>
    <contour>
      <point x="75" y="0" type="curve" smooth="yes"/>
      <point x="97" y="0"/>
      <point x="123" y="15"/>
      <point x="128" y="44" type="curve" smooth="yes"/>
      <point x="226" y="599" type="line" smooth="yes"/>
      <point x="232" y="631"/>
      <point x="205" y="650"/>
      <point x="177" y="650" type="curve" smooth="yes"/>
      <point x="155" y="650"/>
      <point x="133" y="640"/>
      <point x="128" y="612" type="curve" smooth="yes"/>
      <point x="29" y="50" type="line" smooth="yes"/>
      <point x="23" y="15"/>
      <point x="52" y="0"/>
    </contour>
    <contour>
      <point x="138" y="136" type="line"/>
      <point x="184" y="218"/>
      <point x="221" y="273"/>
      <point x="274" y="273" type="curve" smooth="yes"/>
      <point x="280" y="273"/>
      <point x="283" y="270"/>
      <point x="283" y="265" type="curve" smooth="yes"/>
      <point x="283" y="250"/>
      <point x="259" y="219"/>
      <point x="213" y="193" type="curve" smooth="yes"/>
      <point x="205" y="188"/>
      <point x="198" y="179"/>
      <point x="198" y="166" type="curve" smooth="yes"/>
      <point x="198" y="151"/>
      <point x="211" y="134"/>
      <point x="223" y="116" type="curve" smooth="yes"/>
      <point x="286" y="25" type="line" smooth="yes"/>
      <point x="297" y="9"/>
      <point x="315" y="0"/>
      <point x="333" y="0" type="curve" smooth="yes"/>
      <point x="357" y="0"/>
      <point x="379" y="24"/>
      <point x="379" y="42" type="curve" smooth="yes"/>
      <point x="379" y="51"/>
      <point x="376" y="59"/>
      <point x="369" y="69" type="curve" smooth="yes"/>
      <point x="303" y="166" type="line"/>
      <point x="333" y="184"/>
      <point x="385" y="227"/>
      <point x="385" y="291" type="curve" smooth="yes"/>
      <point x="385" y="329"/>
      <point x="346" y="358"/>
      <point x="303" y="358" type="curve" smooth="yes"/>
      <point x="235" y="358"/>
      <point x="197" y="321"/>
      <point x="159" y="268" type="curve"/>
    </contour>
  </outline>
</glyph>
<glyph name="m" format="2">
  <advance width="602"/>
  <unicode hex="006D"/>
  <outline>
    <contour>
      <point x="59" y="0" type="curve" smooth="yes"/>
      <point x="96" y="0"/>
      <point x="115" y="22"/>
      <point x="118" y="37" type="curve" smooth="yes"/>
      <point x="165" y="302" type="line" smooth="yes"/>
      <point x="170" y="332"/>
      <point x="154" y="350"/>
      <point x="122" y="350" type="curve" smooth="yes"/>
      <point x="80" y="350"/>
      <point x="67" y="320"/>
      <point x="65" y="308" type="curve" smooth="yes"/>
      <point x="18" y="44" type="line" smooth="yes"/>
      <point x="14" y="20"/>
      <point x="25" y="0"/>
    </contour>
    <contour>
      <point x="268" y="0" type="curve" smooth="yes"/>
      <point x="304" y="0"/>
      <point x="320" y="19"/>
      <point x="323" y="34" type="curve" smooth="yes"/>
      <point x="351" y="193" type="line" smooth="yes"/>
      <point x="370" y="302"/>
      <point x="341" y="358"/>
      <point x="265" y="358" type="curve" smooth="yes"/>
      <point x="219" y="358"/>
      <point x="187" y="321"/>
      <point x="149" y="268" type="curve"/>
      <point x="128" y="136" type="line"/>
      <point x="174" y="218"/>
      <point x="205" y="272"/>
      <point x="231" y="272" type="curve" smooth="yes"/>
      <point x="251" y="272"/>
      <point x="259" y="250"/>
      <point x="252" y="208" type="curve" smooth="yes"/>
      <point x="224" y="49" type="line" smooth="yes"/>
      <point x="220" y="25"/>
      <point x="236" y="0"/>
    </contour>
    <contour>
      <point x="473" y="0" type="curve" smooth="yes"/>
      <point x="509" y="0"/>
      <point x="525" y="19"/>
      <point x="528" y="34" type="curve" smooth="yes"/>
      <point x="556" y="193" type="line" smooth="yes"/>
      <point x="575" y="302"/>
      <point x="546" y="358"/>
      <point x="470" y="358" type="curve" smooth="yes"/>
      <point x="424" y="358"/>
      <point x="392" y="321"/>
      <point x="354" y="268" type="curve"/>
      <point x="333" y="136" type="line"/>
      <point x="379" y="218"/>
      <point x="410" y="272"/>
      <point x="436" y="272" type="curve" smooth="yes"/>
      <point x="456" y="272"/>
      <point x="464" y="250"/>
      <point x="457" y="208" type="curve" smooth="yes"/>
      <point x="429" y="49" type="line" smooth="yes"/>
      <point x="425" y="25"/>
      <point x="441" y="0"/>
    </contour>
  </outline>
</glyph>
<glyph name="o" format="2">
  <advance width="358"/>
  <unicode hex="006F"/>
  <outline>
    <contour>
      <point x="150" y="-4" type="curve" smooth="yes"/>
      <point x="241" y="-4"/>
      <point x="323" y="103"/>
      <point x="323" y="222" type="curve" smooth="yes"/>
      <point x="323" y="306"/>
      <point x="275" y="358"/>
      <point x="196" y="358" type="curve" smooth="yes"/>
      <point x="95" y="358"/>
      <point x="32" y="279"/>
      <point x="32" y="152" type="curve" smooth="yes"/>
      <point x="32" y="56"/>
      <point x="77" y="-4"/>
    </contour>
    <contour>
      <point x="159" y="83" type="curve" smooth="yes"/>
      <point x="136" y="83"/>
      <point x="122" y="109"/>
      <point x="122" y="150" type="curve" smooth="yes"/>
      <point x="122" y="225"/>
      <point x="148" y="271"/>
      <point x="189" y="271" type="curve" smooth="yes"/>
      <point x="214" y="271"/>
      <point x="230" y="253"/>
      <point x="230" y="223" type="curve" smooth="yes"/>
      <point x="230" y="149"/>
      <point x="196" y="83"/>
    </contour>
  </outline>
</glyph>
<glyph name="p" format="2">
  <advance width="448"/>
  <unicode hex="0070"/>
  <outline>
    <contour>
      <point x="274" y="0" type="curve" smooth="yes"/>
      <point x="298" y="0"/>
      <point x="311" y="10"/>
      <point x="321" y="19" type="curve" smooth="yes"/>
      <point x="404" y="88" type="line" smooth="yes"/>
      <point x="419" y="100"/>
      <point x="430" y="114"/>
      <point x="432" y="127" type="curve" smooth="yes"/>
      <point x="436" y="152"/>
      <point x="416" y="171"/>
      <point x="391" y="172" type="curve" smooth="yes"/>
      <point x="380" y="173"/>
      <point x="367" y="169"/>
      <point x="354" y="161" type="curve" smooth="yes"/>
      <point x="351" y="159" type="line"/>
      <point x="357" y="193" type="line" smooth="yes"/>
      <point x="376" y="302"/>
      <point x="347" y="358"/>
      <point x="271" y="358" type="curve" smooth="yes"/>
      <point x="225" y="358"/>
      <point x="187" y="321"/>
      <point x="149" y="268" type="curve"/>
      <point x="128" y="136" type="line"/>
      <point x="174" y="218"/>
      <point x="211" y="272"/>
      <point x="237" y="272" type="curve" smooth="yes"/>
      <point x="257" y="272"/>
      <point x="265" y="250"/>
      <point x="258" y="208" type="curve" smooth="yes"/>
      <point x="230" y="49" type="line" smooth="yes"/>
      <point x="226" y="25"/>
      <point x="242" y="0"/>
    </contour>
    <contour>
      <point x="6" y="-300" type="curve" smooth="yes"/>
      <point x="43" y="-300"/>
      <point x="62" y="-278"/>
      <point x="65" y="-263" type="curve" smooth="yes"/>
      <point x="165" y="302" type="line" smooth="yes"/>
      <point x="170" y="332"/>
      <point x="154" y="350"/>
      <point x="122" y="350" type="curve" smooth="yes"/>
      <point x="80" y="350"/>
      <point x="67" y="320"/>
      <point x="65" y="308" type="curve" smooth="yes"/>
      <point x="-35" y="-256" type="line" smooth="yes"/>
      <point x="-39" y="-280"/>
      <point x="-28" y="-300"/>
    </contour>
  </outline>
</glyph>
<glyph name="q" format="2">
  <advance width="392"/>
  <unicode hex="0071"/>
  <outline>
    <contour>
      <point x="117" y="-4.0" type="curve" smooth="yes"/>
      <point x="162" y="-4.0"/>
      <point x="206" y="39"/>
      <point x="250" y="123" type="curve"/>
      <point x="256" y="253" type="line"/>
      <point x="212" y="142"/>
      <point x="165" y="83"/>
      <point x="144" y="83.0" type="curve" smooth="yes"/>
      <point x="128" y="83.0"/>
      <point x="121" y="109"/>
      <point x="127" y="147" type="curve" smooth="yes"/>
      <point x="139" y="217"/>
      <point x="192" y="263"/>
      <point x="267" y="263" type="curve" smooth="yes"/>
      <point x="276" y="263" type="line"/>
      <point x="288" y="350" type="line"/>
      <point x="264" y="350" type="line" smooth="yes"/>
      <point x="139" y="350"/>
      <point x="48" y="272"/>
      <point x="26" y="147" type="curve" smooth="yes"/>
      <point x="9" y="54"/>
      <point x="44" y="-4.0"/>
    </contour>
    <contour>
      <point x="209" y="-300" type="curve" smooth="yes"/>
      <point x="222" y="-300"/>
      <point x="237" y="-295"/>
      <point x="247" y="-284" type="curve"/>
      <point x="344" y="-207" type="line" smooth="yes"/>
      <point x="359" y="-195"/>
      <point x="370" y="-181"/>
      <point x="372" y="-168" type="curve" smooth="yes"/>
      <point x="376" y="-143"/>
      <point x="356" y="-124"/>
      <point x="331" y="-123" type="curve" smooth="yes"/>
      <point x="319" y="-122"/>
      <point x="306" y="-127"/>
      <point x="291" y="-137" type="curve" smooth="yes"/>
      <point x="288" y="-139" type="line"/>
      <point x="366" y="306" type="line" smooth="yes"/>
      <point x="370" y="326"/>
      <point x="353" y="350"/>
      <point x="318" y="350" type="curve" smooth="yes"/>
      <point x="273" y="350" type="line"/>
      <point x="167" y="-248" type="line" smooth="yes"/>
      <point x="161" y="-280"/>
      <point x="182" y="-300"/>
    </contour>
  </outline>
</glyph>
<glyph name="s" format="2">
  <advance width="324"/>
  <unicode hex="0073"/>
  <outline>
    <contour>
      <point x="148" y="-4" type="curve" smooth="yes"/>
      <point x="223" y="-4"/>
      <point x="270" y="36"/>
      <point x="270" y="100" type="curve" smooth="yes"/>
      <point x="270" y="141"/>
      <point x="257" y="159"/>
      <point x="238" y="177" type="curve" smooth="yes"/>
      <point x="227" y="188"/>
      <point x="202" y="203"/>
      <point x="182" y="216" type="curve" smooth="yes"/>
      <point x="152" y="235"/>
      <point x="140" y="248"/>
      <point x="140" y="260" type="curve" smooth="yes"/>
      <point x="140" y="269"/>
      <point x="150" y="274"/>
      <point x="167" y="274" type="curve" smooth="yes"/>
      <point x="190" y="274"/>
      <point x="215" y="268"/>
      <point x="231" y="259" type="curve" smooth="yes"/>
      <point x="256" y="246"/>
      <point x="286" y="244"/>
      <point x="298" y="266" type="curve" smooth="yes"/>
      <point x="314" y="296"/>
      <point x="297" y="323"/>
      <point x="260" y="341" type="curve" smooth="yes"/>
      <point x="235" y="353"/>
      <point x="202" y="358"/>
      <point x="175" y="358" type="curve" smooth="yes"/>
      <point x="96" y="358"/>
      <point x="48" y="321"/>
      <point x="48" y="260" type="curve" smooth="yes"/>
      <point x="48" y="216"/>
      <point x="70" y="181"/>
      <point x="113" y="156" type="curve" smooth="yes"/>
      <point x="135" y="142"/>
      <point x="155" y="129"/>
      <point x="168" y="120" type="curve" smooth="yes"/>
      <point x="176" y="114"/>
      <point x="178" y="110"/>
      <point x="178" y="103" type="curve" smooth="yes"/>
      <point x="178" y="92"/>
      <point x="169" y="82"/>
      <point x="149" y="82" type="curve" smooth="yes"/>
      <point x="126" y="82"/>
      <point x="101" y="96"/>
      <point x="93" y="101" type="curve" smooth="yes"/>
      <point x="71" y="115"/>
      <point x="38" y="120"/>
      <point x="24" y="97" type="curve" smooth="yes"/>
      <point x="9" y="73"/>
      <point x="20" y="45"/>
      <point x="59" y="20" type="curve" smooth="yes"/>
      <point x="84" y="4"/>
      <point x="121" y="-4"/>
    </contour>
  </outline>
</glyph>
<glyph name="u" format="2">
  <advance width="398"/>
  <unicode hex="0075"/>
  <outline>
    <contour>
      <point x="124" y="-4" type="curve" smooth="yes"/>
      <point x="161" y="-4"/>
      <point x="200" y="25"/>
      <point x="241" y="82" type="curve"/>
      <point x="262" y="214" type="line"/>
      <point x="213" y="126"/>
      <point x="178" y="82"/>
      <point x="158" y="82" type="curve" smooth="yes"/>
      <point x="137" y="82"/>
      <point x="130" y="102"/>
      <point x="137" y="142" type="curve" smooth="yes"/>
      <point x="165" y="301" type="line" smooth="yes"/>
      <point x="169" y="325"/>
      <point x="153" y="350"/>
      <point x="121" y="350" type="curve" smooth="yes"/>
      <point x="85" y="350"/>
      <point x="69" y="331"/>
      <point x="66" y="316" type="curve" smooth="yes"/>
      <point x="38" y="157" type="line" smooth="yes"/>
      <point x="19" y="50"/>
      <point x="48" y="-4"/>
    </contour>
    <contour>
      <point x="268" y="0" type="curve" smooth="yes"/>
      <point x="310" y="0"/>
      <point x="323" y="30"/>
      <point x="325" y="42" type="curve" smooth="yes"/>
      <point x="372" y="306" type="line" smooth="yes"/>
      <point x="376" y="330"/>
      <point x="365" y="350"/>
      <point x="331" y="350" type="curve" smooth="yes"/>
      <point x="294" y="350"/>
      <point x="275" y="328"/>
      <point x="272" y="313" type="curve" smooth="yes"/>
      <point x="225" y="48" type="line" smooth="yes"/>
      <point x="220" y="18"/>
      <point x="236" y="0"/>
    </contour>
  </outline>
</glyph>
<glyph name="v" format="2">
  <advance width="474"/>
  <unicode hex="0076"/>
  <outline>
    <contour>
      <point x="111" y="-4" type="curve" smooth="yes"/>
      <point x="190" y="-4"/>
      <point x="299" y="101"/>
      <point x="370" y="241" type="curve" smooth="yes"/>
      <point x="373" y="247" type="line"/>
      <point x="411" y="239" type="line" smooth="yes"/>
      <point x="451" y="231"/>
      <point x="484" y="249"/>
      <point x="484" y="288" type="curve" smooth="yes"/>
      <point x="484" y="310"/>
      <point x="469" y="329"/>
      <point x="439" y="335" type="curve" smooth="yes"/>
      <point x="368" y="349"/>
      <point x="362" y="350"/>
      <point x="358" y="350" type="curve" smooth="yes"/>
      <point x="331" y="350"/>
      <point x="317" y="337"/>
      <point x="302" y="307" type="curve" smooth="yes"/>
      <point x="238" y="177"/>
      <point x="168" y="83"/>
      <point x="137" y="83" type="curve" smooth="yes"/>
      <point x="129" y="83"/>
      <point x="127" y="92"/>
      <point x="131" y="115" type="curve" smooth="yes"/>
      <point x="164" y="297" type="line" smooth="yes"/>
      <point x="170" y="330"/>
      <point x="147" y="350"/>
      <point x="120" y="350" type="curve" smooth="yes"/>
      <point x="98" y="350"/>
      <point x="69" y="334"/>
      <point x="64" y="307" type="curve" smooth="yes"/>
      <point x="30" y="115" type="line" smooth="yes"/>
      <point x="17" y="36"/>
      <point x="45" y="-4"/>
    </contour>
  </outline>
</glyph>
<glyph name="bar" format="2">
  <advance width="251"/>
  <unicode hex="007C"/>
  <outline>
    <contour>
      <point x="255" y="645" type="line" smooth="yes"/>
      <point x="261" y="681"/>
      <point x="238" y="702"/>
      <point x="210" y="702" type="curve" smooth="yes"/>
      <point x="188" y="702"/>
      <point x="162" y="685"/>
      <point x="157" y="657" type="curve" smooth="yes"/>
      <point x="-4" y="-250" type="line" smooth="yes"/>
      <point x="-10" y="-278"/>
      <point x="12" y="-302"/>
      <point x="44" y="-302" type="curve" smooth="yes"/>
      <point x="78" y="-302"/>
      <point x="90" y="-281"/>
      <point x="95" y="-260" type="curve"/>
    </contour>
  </outline>
</glyph>
<glyph name="questiondown" format="2">
  <advance width="491"/>
  <unicode hex="00BF"/>
  <outline>
    <contour>
      <point x="218" y="0" type="curve" smooth="yes"/>
      <point x="335" y="0"/>
      <point x="403" y="68"/>
      <point x="419" y="161" type="curve" smooth="yes"/>
      <point x="425" y="197"/>
      <point x="410" y="220"/>
      <point x="378" y="220" type="curve" smooth="yes"/>
      <point x="349" y="220"/>
      <point x="329" y="204"/>
      <point x="325" y="178" type="curve" smooth="yes"/>
      <point x="317" y="130"/>
      <point x="292" y="89"/>
      <point x="230" y="89" type="curve" smooth="yes"/>
      <point x="185" y="89"/>
      <point x="157" y="119"/>
      <point x="157" y="167" type="curve" smooth="yes"/>
      <point x="157" y="247"/>
      <point x="220" y="294"/>
      <point x="317" y="294" type="curve" smooth="yes"/>
      <point x="338" y="294"/>
      <point x="359" y="308"/>
      <point x="363" y="329" type="curve" smooth="yes"/>
      <point x="379" y="417" type="line" smooth="yes"/>
      <point x="386" y="450"/>
      <point x="367" y="474"/>
      <point x="335" y="474" type="curve" smooth="yes"/>
      <point x="309" y="474"/>
      <point x="290" y="457"/>
      <point x="284" y="425" type="curve" smooth="yes"/>
      <point x="276" y="382" type="line"/>
      <point x="145" y="374"/>
      <point x="62" y="280"/>
      <point x="62" y="160" type="curve" smooth="yes"/>
      <point x="62" y="61"/>
      <point x="122" y="0"/>
    </contour>
    <contour>
      <point x="359" y="524" type="curve" smooth="yes"/>
      <point x="394" y="524"/>
      <point x="421" y="552"/>
      <point x="421" y="585" type="curve" smooth="yes"/>
      <point x="421" y="620"/>
      <point x="394" y="650"/>
      <point x="359" y="650" type="curve" smooth="yes"/>
      <point x="326" y="650"/>
      <point x="296" y="620"/>
      <point x="296" y="585" type="curve" smooth="yes"/>
      <point x="296" y="552"/>
      <point x="326" y="524"/>
    </contour>
  </outline>
</glyph>
<glyph name="ellipsis" format="2">
  <advance width="599"/>
  <unicode hex="2026"/>
  <outline>
    <contour>
      <point x="90" y="0" type="curve" smooth="yes"/>
      <point x="123" y="0"/>
      <point x="153" y="30"/>
      <point x="153" y="65" type="curve" smooth="yes"/>
      <point x="153" y="98"/>
      <point x="123" y="126"/>
      <point x="90" y="126" type="curve" smooth="yes"/>
      <point x="55" y="126"/>
      <point x="28" y="98"/>
      <point x="28" y="65" type="curve" smooth="yes"/>
      <point x="28" y="30"/>
      <point x="55" y="0"/>
    </contour>
    <contour>
      <point x="280" y="0" type="curve" smooth="yes"/>
      <point x="313" y="0"/>
      <point x="343" y="30"/>
      <point x="343" y="65" type="curve" smooth="yes"/>
      <point x="343" y="98"/>
      <point x="313" y="126"/>
      <point x="280" y="126" type="curve" smooth="yes"/>
      <point x="245" y="126"/>
      <point x="218" y="98"/>
      <point x="218" y="65" type="curve" smooth="yes"/>
      <point x="218" y="30"/>
      <point x="245" y="0"/>
    </contour>
    <contour>
      <point x="470" y="0" type="curve" smooth="yes"/>
      <point x="503" y="0"/>
      <point x="533" y="30"/>
      <point x="533" y="65" type="curve" smooth="yes"/>
      <point x="533" y="98"/>
      <point x="503" y="126"/>
      <point x="470" y="126" type="curve" smooth="yes"/>
      <point x="435" y="126"/>
      <point x="408" y="98"/>
      <point x="408" y="65" type="curve" smooth="yes"/>
      <point x="408" y="30"/>
      <point x="435" y="0"/>
    </contour>
  </outline>
</glyph>
<glyph name="lessequal" format="2">
  <advance width="426"/>
  <unicode hex="2264"/>
  <outline>
    <contour>
      <point x="79" y="106" type="curve" smooth="yes"/>
      <point x="306" y="106" type="line" smooth="yes"/>
      <point x="340.0" y="106.0"/>
      <point x="352.0" y="130"/>
      <point x="352" y="149" type="curve" smooth="yes"/>
      <point x="352.0" y="169.0"/>
      <point x="340.0" y="192.0"/>
      <point x="306" y="192" type="curve" smooth="yes"/>
      <point x="79" y="192" type="line" smooth="yes"/>
      <point x="45.0" y="192.0"/>
      <point x="33.0" y="169.0"/>
      <point x="33" y="149" type="curve" smooth="yes"/>
      <point x="33.0" y="129"/>
      <point x="45.0" y="106.0"/>
    </contour>
    <contour>
      <point x="108" y="221" type="curve" smooth="yes"/>
      <point x="314" y="221" type="line" smooth="yes"/>
      <point x="347.0" y="221.0"/>
      <point x="360.0" y="244.0"/>
      <point x="360" y="264" type="curve" smooth="yes"/>
      <point x="360.0" y="283.0"/>
      <point x="348.0" y="307.0"/>
      <point x="314" y="307" type="curve" smooth="yes"/>
      <point x="182" y="307" type="line"/>
      <point x="193" y="281" type="line"/>
      <point x="335" y="343" type="line" smooth="yes"/>
      <point x="366.0" y="356.0"/>
      <point x="366" y="388.0"/>
      <point x="351" y="408" type="curve" smooth="yes"/>
      <point x="338.0" y="425.0"/>
      <point x="319" y="432.0"/>
      <point x="290" y="416" type="curve" smooth="yes"/>
      <point x="86" y="302" type="line" smooth="yes"/>
      <point x="68.0" y="292"/>
      <point x="62.0" y="278.0"/>
      <point x="62" y="264" type="curve" smooth="yes"/>
      <point x="62.0" y="245.0"/>
      <point x="74.0" y="221.0"/>
    </contour>
  </outline>
</glyph>
